<mxfile host="app.diagrams.net" modified="2021-10-11T16:09:45.747Z" agent="5.0 (X11; Linux x86_64) AppleWebKit/537.36 (KHTML, like Gecko) Chrome/85.0.4183.121 Safari/537.36" etag="8XBU7sj1urwyjQHbibNJ" version="15.5.0" type="github">
  <diagram id="BbiA8Y8N8VMHT7lSSjlu" name="Page-1">
    <mxGraphModel dx="2844" dy="1506" grid="1" gridSize="10" guides="1" tooltips="1" connect="1" arrows="1" fold="1" page="1" pageScale="1" pageWidth="827" pageHeight="1169" math="0" shadow="0">
      <root>
        <mxCell id="0" />
        <mxCell id="1" parent="0" />
        <mxCell id="I9GEyZ0ykOGTKjr3v0vk-1" value="room" style="rounded=1;whiteSpace=wrap;html=1;labelPosition=center;verticalLabelPosition=top;align=center;verticalAlign=bottom;" parent="1" vertex="1">
          <mxGeometry x="640" y="190" width="270" height="370" as="geometry" />
        </mxCell>
        <mxCell id="I9GEyZ0ykOGTKjr3v0vk-19" style="edgeStyle=orthogonalEdgeStyle;rounded=0;orthogonalLoop=1;jettySize=auto;html=1;startArrow=classic;startFill=1;" parent="1" target="I9GEyZ0ykOGTKjr3v0vk-18" edge="1">
          <mxGeometry relative="1" as="geometry">
            <mxPoint x="488" y="1000" as="sourcePoint" />
          </mxGeometry>
        </mxCell>
        <mxCell id="I9GEyZ0ykOGTKjr3v0vk-68" style="edgeStyle=orthogonalEdgeStyle;rounded=0;orthogonalLoop=1;jettySize=auto;html=1;exitX=0.5;exitY=0;exitDx=0;exitDy=0;startArrow=none;startFill=0;endArrow=classic;endFill=1;entryX=1;entryY=0.143;entryDx=0;entryDy=0;entryPerimeter=0;" parent="1" source="I9GEyZ0ykOGTKjr3v0vk-7" edge="1" target="I9GEyZ0ykOGTKjr3v0vk-1">
          <mxGeometry relative="1" as="geometry">
            <Array as="points">
              <mxPoint x="489" y="170" />
              <mxPoint x="940" y="170" />
              <mxPoint x="940" y="243" />
            </Array>
            <mxPoint x="873" y="280" as="targetPoint" />
          </mxGeometry>
        </mxCell>
        <mxCell id="d2Dc6NT3t0t4nk2ojeOt-153" style="edgeStyle=orthogonalEdgeStyle;rounded=0;orthogonalLoop=1;jettySize=auto;html=1;exitX=0.5;exitY=0;exitDx=0;exitDy=0;entryX=1.006;entryY=0.115;entryDx=0;entryDy=0;entryPerimeter=0;startArrow=none;startFill=0;endArrow=classic;endFill=1;" edge="1" parent="1" source="I9GEyZ0ykOGTKjr3v0vk-7" target="d2Dc6NT3t0t4nk2ojeOt-33">
          <mxGeometry relative="1" as="geometry">
            <Array as="points">
              <mxPoint x="488" y="160" />
              <mxPoint x="950" y="160" />
              <mxPoint x="950" y="631" />
            </Array>
          </mxGeometry>
        </mxCell>
        <mxCell id="d2Dc6NT3t0t4nk2ojeOt-154" style="edgeStyle=orthogonalEdgeStyle;rounded=0;orthogonalLoop=1;jettySize=auto;html=1;exitX=0.5;exitY=0;exitDx=0;exitDy=0;entryX=1.002;entryY=0.115;entryDx=0;entryDy=0;entryPerimeter=0;startArrow=none;startFill=0;endArrow=classic;endFill=1;" edge="1" parent="1" source="I9GEyZ0ykOGTKjr3v0vk-7" target="d2Dc6NT3t0t4nk2ojeOt-63">
          <mxGeometry relative="1" as="geometry">
            <Array as="points">
              <mxPoint x="488" y="150" />
              <mxPoint x="960" y="150" />
              <mxPoint x="960" y="1034" />
            </Array>
          </mxGeometry>
        </mxCell>
        <mxCell id="d2Dc6NT3t0t4nk2ojeOt-155" style="edgeStyle=orthogonalEdgeStyle;rounded=0;orthogonalLoop=1;jettySize=auto;html=1;exitX=0.5;exitY=0;exitDx=0;exitDy=0;entryX=1.012;entryY=0.133;entryDx=0;entryDy=0;entryPerimeter=0;startArrow=none;startFill=0;endArrow=classic;endFill=1;" edge="1" parent="1" source="I9GEyZ0ykOGTKjr3v0vk-7" target="d2Dc6NT3t0t4nk2ojeOt-91">
          <mxGeometry relative="1" as="geometry">
            <Array as="points">
              <mxPoint x="488" y="140" />
              <mxPoint x="970" y="140" />
              <mxPoint x="970" y="1439" />
            </Array>
          </mxGeometry>
        </mxCell>
        <mxCell id="d2Dc6NT3t0t4nk2ojeOt-156" style="edgeStyle=orthogonalEdgeStyle;rounded=0;orthogonalLoop=1;jettySize=auto;html=1;exitX=0.5;exitY=0;exitDx=0;exitDy=0;startArrow=none;startFill=0;endArrow=classic;endFill=1;entryX=1;entryY=0.122;entryDx=0;entryDy=0;entryPerimeter=0;" edge="1" parent="1" source="I9GEyZ0ykOGTKjr3v0vk-7" target="d2Dc6NT3t0t4nk2ojeOt-119">
          <mxGeometry relative="1" as="geometry">
            <mxPoint x="940" y="1835" as="targetPoint" />
            <Array as="points">
              <mxPoint x="488" y="130" />
              <mxPoint x="980" y="130" />
              <mxPoint x="980" y="1835" />
            </Array>
          </mxGeometry>
        </mxCell>
        <mxCell id="I9GEyZ0ykOGTKjr3v0vk-7" value="api" style="rounded=1;whiteSpace=wrap;html=1;" parent="1" vertex="1">
          <mxGeometry x="428" y="700" width="120" height="300" as="geometry" />
        </mxCell>
        <mxCell id="I9GEyZ0ykOGTKjr3v0vk-15" style="edgeStyle=orthogonalEdgeStyle;rounded=0;orthogonalLoop=1;jettySize=auto;html=1;exitX=1;exitY=0.5;exitDx=0;exitDy=0;entryX=0.008;entryY=0.453;entryDx=0;entryDy=0;entryPerimeter=0;" parent="1" source="I9GEyZ0ykOGTKjr3v0vk-12" target="I9GEyZ0ykOGTKjr3v0vk-7" edge="1">
          <mxGeometry relative="1" as="geometry" />
        </mxCell>
        <mxCell id="I9GEyZ0ykOGTKjr3v0vk-17" style="edgeStyle=orthogonalEdgeStyle;rounded=0;orthogonalLoop=1;jettySize=auto;html=1;exitX=1;exitY=0.5;exitDx=0;exitDy=0;entryX=-0.008;entryY=0.579;entryDx=0;entryDy=0;entryPerimeter=0;" parent="1" source="I9GEyZ0ykOGTKjr3v0vk-12" target="I9GEyZ0ykOGTKjr3v0vk-14" edge="1">
          <mxGeometry relative="1" as="geometry" />
        </mxCell>
        <mxCell id="I9GEyZ0ykOGTKjr3v0vk-12" value="load balancer" style="rhombus;whiteSpace=wrap;html=1;" parent="1" vertex="1">
          <mxGeometry x="189" y="1100" width="150" height="160" as="geometry" />
        </mxCell>
        <mxCell id="I9GEyZ0ykOGTKjr3v0vk-21" style="edgeStyle=orthogonalEdgeStyle;rounded=0;orthogonalLoop=1;jettySize=auto;html=1;exitX=0.5;exitY=0;exitDx=0;exitDy=0;entryX=0.5;entryY=1;entryDx=0;entryDy=0;startArrow=classic;startFill=1;" parent="1" source="I9GEyZ0ykOGTKjr3v0vk-14" target="I9GEyZ0ykOGTKjr3v0vk-18" edge="1">
          <mxGeometry relative="1" as="geometry" />
        </mxCell>
        <mxCell id="d2Dc6NT3t0t4nk2ojeOt-157" style="edgeStyle=orthogonalEdgeStyle;rounded=0;orthogonalLoop=1;jettySize=auto;html=1;exitX=0.5;exitY=1;exitDx=0;exitDy=0;entryX=1.003;entryY=0.892;entryDx=0;entryDy=0;entryPerimeter=0;startArrow=none;startFill=0;endArrow=classic;endFill=1;" edge="1" parent="1" source="I9GEyZ0ykOGTKjr3v0vk-14" target="d2Dc6NT3t0t4nk2ojeOt-119">
          <mxGeometry relative="1" as="geometry">
            <Array as="points">
              <mxPoint x="488" y="2170" />
              <mxPoint x="1030" y="2170" />
              <mxPoint x="1030" y="2120" />
            </Array>
          </mxGeometry>
        </mxCell>
        <mxCell id="d2Dc6NT3t0t4nk2ojeOt-159" style="edgeStyle=orthogonalEdgeStyle;rounded=0;orthogonalLoop=1;jettySize=auto;html=1;exitX=0.5;exitY=1;exitDx=0;exitDy=0;entryX=1;entryY=0.889;entryDx=0;entryDy=0;entryPerimeter=0;startArrow=none;startFill=0;endArrow=classic;endFill=1;" edge="1" parent="1" source="I9GEyZ0ykOGTKjr3v0vk-14" target="d2Dc6NT3t0t4nk2ojeOt-63">
          <mxGeometry relative="1" as="geometry">
            <Array as="points">
              <mxPoint x="488" y="2190" />
              <mxPoint x="1050" y="2190" />
              <mxPoint x="1050" y="1320" />
            </Array>
          </mxGeometry>
        </mxCell>
        <mxCell id="d2Dc6NT3t0t4nk2ojeOt-160" style="edgeStyle=orthogonalEdgeStyle;rounded=0;orthogonalLoop=1;jettySize=auto;html=1;exitX=0.5;exitY=1;exitDx=0;exitDy=0;entryX=1.015;entryY=0.859;entryDx=0;entryDy=0;entryPerimeter=0;startArrow=none;startFill=0;endArrow=classic;endFill=1;" edge="1" parent="1" source="I9GEyZ0ykOGTKjr3v0vk-14" target="d2Dc6NT3t0t4nk2ojeOt-33">
          <mxGeometry relative="1" as="geometry">
            <Array as="points">
              <mxPoint x="488" y="2200" />
              <mxPoint x="1060" y="2200" />
              <mxPoint x="1060" y="906" />
            </Array>
          </mxGeometry>
        </mxCell>
        <mxCell id="d2Dc6NT3t0t4nk2ojeOt-161" style="edgeStyle=orthogonalEdgeStyle;rounded=0;orthogonalLoop=1;jettySize=auto;html=1;exitX=0.5;exitY=1;exitDx=0;exitDy=0;entryX=1.006;entryY=0.872;entryDx=0;entryDy=0;entryPerimeter=0;startArrow=none;startFill=0;endArrow=classic;endFill=1;" edge="1" parent="1" source="I9GEyZ0ykOGTKjr3v0vk-14" target="I9GEyZ0ykOGTKjr3v0vk-1">
          <mxGeometry relative="1" as="geometry">
            <Array as="points">
              <mxPoint x="488" y="2210" />
              <mxPoint x="1070" y="2210" />
              <mxPoint x="1070" y="513" />
            </Array>
          </mxGeometry>
        </mxCell>
        <mxCell id="d2Dc6NT3t0t4nk2ojeOt-162" style="edgeStyle=orthogonalEdgeStyle;rounded=0;orthogonalLoop=1;jettySize=auto;html=1;exitX=0.5;exitY=1;exitDx=0;exitDy=0;startArrow=none;startFill=0;endArrow=classic;endFill=1;entryX=1.001;entryY=0.886;entryDx=0;entryDy=0;entryPerimeter=0;" edge="1" parent="1" source="I9GEyZ0ykOGTKjr3v0vk-14" target="d2Dc6NT3t0t4nk2ojeOt-91">
          <mxGeometry relative="1" as="geometry">
            <mxPoint x="1020" y="1740" as="targetPoint" />
            <Array as="points">
              <mxPoint x="488" y="2180" />
              <mxPoint x="1040" y="2180" />
              <mxPoint x="1040" y="1718" />
            </Array>
          </mxGeometry>
        </mxCell>
        <mxCell id="I9GEyZ0ykOGTKjr3v0vk-14" value="api" style="rounded=1;whiteSpace=wrap;html=1;" parent="1" vertex="1">
          <mxGeometry x="428" y="1340" width="120" height="300" as="geometry" />
        </mxCell>
        <mxCell id="I9GEyZ0ykOGTKjr3v0vk-18" value="eureka" style="rhombus;whiteSpace=wrap;html=1;" parent="1" vertex="1">
          <mxGeometry x="413" y="1095" width="150" height="160" as="geometry" />
        </mxCell>
        <mxCell id="I9GEyZ0ykOGTKjr3v0vk-32" style="edgeStyle=orthogonalEdgeStyle;rounded=0;orthogonalLoop=1;jettySize=auto;html=1;exitX=0.5;exitY=0.5;exitDx=0;exitDy=0;exitPerimeter=0;entryX=0.5;entryY=0;entryDx=0;entryDy=0;" parent="1" source="I9GEyZ0ykOGTKjr3v0vk-22" target="I9GEyZ0ykOGTKjr3v0vk-12" edge="1">
          <mxGeometry relative="1" as="geometry" />
        </mxCell>
        <mxCell id="I9GEyZ0ykOGTKjr3v0vk-22" value="client" style="shape=umlActor;verticalLabelPosition=bottom;verticalAlign=top;html=1;outlineConnect=0;" parent="1" vertex="1">
          <mxGeometry x="49" y="925" width="30" height="60" as="geometry" />
        </mxCell>
        <mxCell id="I9GEyZ0ykOGTKjr3v0vk-27" style="edgeStyle=orthogonalEdgeStyle;rounded=0;orthogonalLoop=1;jettySize=auto;html=1;exitX=0.5;exitY=0.5;exitDx=0;exitDy=0;exitPerimeter=0;entryX=0;entryY=0.5;entryDx=0;entryDy=0;" parent="1" source="I9GEyZ0ykOGTKjr3v0vk-23" target="I9GEyZ0ykOGTKjr3v0vk-12" edge="1">
          <mxGeometry relative="1" as="geometry" />
        </mxCell>
        <mxCell id="I9GEyZ0ykOGTKjr3v0vk-23" value="client" style="shape=umlActor;verticalLabelPosition=bottom;verticalAlign=top;html=1;outlineConnect=0;" parent="1" vertex="1">
          <mxGeometry x="49" y="1085" width="30" height="60" as="geometry" />
        </mxCell>
        <mxCell id="I9GEyZ0ykOGTKjr3v0vk-29" style="edgeStyle=orthogonalEdgeStyle;rounded=0;orthogonalLoop=1;jettySize=auto;html=1;exitX=0.5;exitY=0.5;exitDx=0;exitDy=0;exitPerimeter=0;" parent="1" source="I9GEyZ0ykOGTKjr3v0vk-24" target="I9GEyZ0ykOGTKjr3v0vk-12" edge="1">
          <mxGeometry relative="1" as="geometry" />
        </mxCell>
        <mxCell id="I9GEyZ0ykOGTKjr3v0vk-24" value="client" style="shape=umlActor;verticalLabelPosition=bottom;verticalAlign=top;html=1;outlineConnect=0;" parent="1" vertex="1">
          <mxGeometry x="49" y="1225" width="30" height="60" as="geometry" />
        </mxCell>
        <mxCell id="I9GEyZ0ykOGTKjr3v0vk-31" style="edgeStyle=orthogonalEdgeStyle;rounded=0;orthogonalLoop=1;jettySize=auto;html=1;exitX=0.5;exitY=0.5;exitDx=0;exitDy=0;exitPerimeter=0;entryX=0.5;entryY=1;entryDx=0;entryDy=0;" parent="1" source="I9GEyZ0ykOGTKjr3v0vk-25" target="I9GEyZ0ykOGTKjr3v0vk-12" edge="1">
          <mxGeometry relative="1" as="geometry" />
        </mxCell>
        <mxCell id="I9GEyZ0ykOGTKjr3v0vk-25" value="client" style="shape=umlActor;verticalLabelPosition=bottom;verticalAlign=top;html=1;outlineConnect=0;" parent="1" vertex="1">
          <mxGeometry x="49" y="1365" width="30" height="60" as="geometry" />
        </mxCell>
        <mxCell id="d2Dc6NT3t0t4nk2ojeOt-9" style="edgeStyle=orthogonalEdgeStyle;rounded=0;orthogonalLoop=1;jettySize=auto;html=1;exitX=0.5;exitY=1;exitDx=0;exitDy=0;entryX=0.5;entryY=0;entryDx=0;entryDy=0;entryPerimeter=0;" edge="1" parent="1" source="I9GEyZ0ykOGTKjr3v0vk-74" target="d2Dc6NT3t0t4nk2ojeOt-6">
          <mxGeometry relative="1" as="geometry" />
        </mxCell>
        <mxCell id="d2Dc6NT3t0t4nk2ojeOt-12" style="edgeStyle=orthogonalEdgeStyle;rounded=0;orthogonalLoop=1;jettySize=auto;html=1;exitX=0.5;exitY=0;exitDx=0;exitDy=0;entryX=0.5;entryY=1;entryDx=0;entryDy=0;entryPerimeter=0;" edge="1" parent="1" source="I9GEyZ0ykOGTKjr3v0vk-74" target="d2Dc6NT3t0t4nk2ojeOt-2">
          <mxGeometry relative="1" as="geometry" />
        </mxCell>
        <mxCell id="d2Dc6NT3t0t4nk2ojeOt-22" style="edgeStyle=orthogonalEdgeStyle;rounded=0;orthogonalLoop=1;jettySize=auto;html=1;exitX=0.25;exitY=1;exitDx=0;exitDy=0;entryX=1;entryY=0.25;entryDx=0;entryDy=0;startArrow=classic;startFill=1;" edge="1" parent="1" source="I9GEyZ0ykOGTKjr3v0vk-74" target="d2Dc6NT3t0t4nk2ojeOt-18">
          <mxGeometry relative="1" as="geometry">
            <Array as="points">
              <mxPoint x="728" y="378" />
            </Array>
          </mxGeometry>
        </mxCell>
        <mxCell id="I9GEyZ0ykOGTKjr3v0vk-74" value="instance" style="rounded=1;whiteSpace=wrap;html=1;" parent="1" vertex="1">
          <mxGeometry x="715.5" y="338" width="50" height="20" as="geometry" />
        </mxCell>
        <mxCell id="d2Dc6NT3t0t4nk2ojeOt-10" style="edgeStyle=orthogonalEdgeStyle;rounded=0;orthogonalLoop=1;jettySize=auto;html=1;exitX=0.5;exitY=1;exitDx=0;exitDy=0;entryX=0.5;entryY=0;entryDx=0;entryDy=0;entryPerimeter=0;" edge="1" parent="1" source="I9GEyZ0ykOGTKjr3v0vk-75" target="d2Dc6NT3t0t4nk2ojeOt-7">
          <mxGeometry relative="1" as="geometry" />
        </mxCell>
        <mxCell id="d2Dc6NT3t0t4nk2ojeOt-13" style="edgeStyle=orthogonalEdgeStyle;rounded=0;orthogonalLoop=1;jettySize=auto;html=1;exitX=0.5;exitY=0;exitDx=0;exitDy=0;entryX=0.5;entryY=1;entryDx=0;entryDy=0;entryPerimeter=0;" edge="1" parent="1" source="I9GEyZ0ykOGTKjr3v0vk-75" target="d2Dc6NT3t0t4nk2ojeOt-3">
          <mxGeometry relative="1" as="geometry" />
        </mxCell>
        <mxCell id="d2Dc6NT3t0t4nk2ojeOt-23" style="edgeStyle=orthogonalEdgeStyle;rounded=0;orthogonalLoop=1;jettySize=auto;html=1;exitX=0.25;exitY=1;exitDx=0;exitDy=0;entryX=1;entryY=0.5;entryDx=0;entryDy=0;startArrow=classic;startFill=1;" edge="1" parent="1" source="I9GEyZ0ykOGTKjr3v0vk-75" target="d2Dc6NT3t0t4nk2ojeOt-18">
          <mxGeometry relative="1" as="geometry">
            <Array as="points">
              <mxPoint x="792" y="398" />
            </Array>
          </mxGeometry>
        </mxCell>
        <mxCell id="I9GEyZ0ykOGTKjr3v0vk-75" value="instance" style="rounded=1;whiteSpace=wrap;html=1;" parent="1" vertex="1">
          <mxGeometry x="779.25" y="338" width="50" height="20" as="geometry" />
        </mxCell>
        <mxCell id="d2Dc6NT3t0t4nk2ojeOt-11" style="edgeStyle=orthogonalEdgeStyle;rounded=0;orthogonalLoop=1;jettySize=auto;html=1;exitX=0.5;exitY=1;exitDx=0;exitDy=0;entryX=0.5;entryY=0;entryDx=0;entryDy=0;entryPerimeter=0;" edge="1" parent="1" source="I9GEyZ0ykOGTKjr3v0vk-76" target="d2Dc6NT3t0t4nk2ojeOt-8">
          <mxGeometry relative="1" as="geometry" />
        </mxCell>
        <mxCell id="d2Dc6NT3t0t4nk2ojeOt-14" style="edgeStyle=orthogonalEdgeStyle;rounded=0;orthogonalLoop=1;jettySize=auto;html=1;exitX=0.5;exitY=0;exitDx=0;exitDy=0;entryX=0.5;entryY=1;entryDx=0;entryDy=0;entryPerimeter=0;" edge="1" parent="1" source="I9GEyZ0ykOGTKjr3v0vk-76" target="d2Dc6NT3t0t4nk2ojeOt-5">
          <mxGeometry relative="1" as="geometry" />
        </mxCell>
        <mxCell id="d2Dc6NT3t0t4nk2ojeOt-31" style="edgeStyle=orthogonalEdgeStyle;rounded=0;orthogonalLoop=1;jettySize=auto;html=1;exitX=0.25;exitY=1;exitDx=0;exitDy=0;entryX=0.992;entryY=0.774;entryDx=0;entryDy=0;entryPerimeter=0;startArrow=classic;startFill=1;" edge="1" parent="1" source="I9GEyZ0ykOGTKjr3v0vk-76" target="d2Dc6NT3t0t4nk2ojeOt-18">
          <mxGeometry relative="1" as="geometry" />
        </mxCell>
        <mxCell id="I9GEyZ0ykOGTKjr3v0vk-76" value="instance" style="rounded=1;whiteSpace=wrap;html=1;" parent="1" vertex="1">
          <mxGeometry x="843" y="338" width="50" height="20" as="geometry" />
        </mxCell>
        <mxCell id="I9GEyZ0ykOGTKjr3v0vk-110" value="pg" style="shape=cylinder3;whiteSpace=wrap;html=1;boundedLbl=1;backgroundOutline=1;size=15;fontSize=23;" parent="1" vertex="1">
          <mxGeometry x="1102" y="1073.5" width="160" height="205" as="geometry" />
        </mxCell>
        <mxCell id="tZeqiOX70hp46-EPD96z-147" style="edgeStyle=orthogonalEdgeStyle;rounded=0;orthogonalLoop=1;jettySize=auto;html=1;exitX=0.5;exitY=1;exitDx=0;exitDy=0;exitPerimeter=0;entryX=0.5;entryY=0;entryDx=0;entryDy=0;entryPerimeter=0;" parent="1" source="tZeqiOX70hp46-EPD96z-8" target="I9GEyZ0ykOGTKjr3v0vk-110" edge="1">
          <mxGeometry relative="1" as="geometry">
            <Array as="points">
              <mxPoint x="804" y="550" />
              <mxPoint x="1182" y="550" />
            </Array>
          </mxGeometry>
        </mxCell>
        <mxCell id="tZeqiOX70hp46-EPD96z-8" value="pg" style="shape=cylinder3;whiteSpace=wrap;html=1;boundedLbl=1;backgroundOutline=1;size=15;" parent="1" vertex="1">
          <mxGeometry x="760.5" y="494" width="87.5" height="50" as="geometry" />
        </mxCell>
        <mxCell id="tZeqiOX70hp46-EPD96z-153" style="edgeStyle=orthogonalEdgeStyle;rounded=0;orthogonalLoop=1;jettySize=auto;html=1;exitX=0;exitY=0.5;exitDx=0;exitDy=0;entryX=1;entryY=0.5;entryDx=0;entryDy=0;entryPerimeter=0;fontSize=23;" parent="1" source="tZeqiOX70hp46-EPD96z-152" target="I9GEyZ0ykOGTKjr3v0vk-110" edge="1">
          <mxGeometry relative="1" as="geometry" />
        </mxCell>
        <mxCell id="tZeqiOX70hp46-EPD96z-152" value="report server" style="rounded=1;whiteSpace=wrap;html=1;fontSize=23;" parent="1" vertex="1">
          <mxGeometry x="1309" y="1077" width="120" height="200" as="geometry" />
        </mxCell>
        <mxCell id="tZeqiOX70hp46-EPD96z-158" style="edgeStyle=orthogonalEdgeStyle;rounded=0;orthogonalLoop=1;jettySize=auto;html=1;exitX=0.5;exitY=0.5;exitDx=0;exitDy=0;exitPerimeter=0;entryX=1;entryY=0.5;entryDx=0;entryDy=0;fontSize=23;" parent="1" source="tZeqiOX70hp46-EPD96z-154" target="tZeqiOX70hp46-EPD96z-152" edge="1">
          <mxGeometry relative="1" as="geometry">
            <Array as="points">
              <mxPoint x="1472" y="934" />
              <mxPoint x="1472" y="1177" />
            </Array>
          </mxGeometry>
        </mxCell>
        <mxCell id="tZeqiOX70hp46-EPD96z-154" value="analyst" style="shape=umlActor;verticalLabelPosition=bottom;verticalAlign=top;html=1;outlineConnect=0;fontSize=23;" parent="1" vertex="1">
          <mxGeometry x="1539" y="904" width="30" height="60" as="geometry" />
        </mxCell>
        <mxCell id="tZeqiOX70hp46-EPD96z-159" style="edgeStyle=orthogonalEdgeStyle;rounded=0;orthogonalLoop=1;jettySize=auto;html=1;exitX=0.5;exitY=0.5;exitDx=0;exitDy=0;exitPerimeter=0;fontSize=23;" parent="1" source="tZeqiOX70hp46-EPD96z-155" edge="1">
          <mxGeometry relative="1" as="geometry">
            <mxPoint x="1428.9999999999995" y="1177" as="targetPoint" />
            <Array as="points">
              <mxPoint x="1472" y="1084" />
              <mxPoint x="1472" y="1177" />
            </Array>
          </mxGeometry>
        </mxCell>
        <mxCell id="tZeqiOX70hp46-EPD96z-155" value="analyst" style="shape=umlActor;verticalLabelPosition=bottom;verticalAlign=top;html=1;outlineConnect=0;fontSize=23;" parent="1" vertex="1">
          <mxGeometry x="1539" y="1054" width="30" height="60" as="geometry" />
        </mxCell>
        <mxCell id="tZeqiOX70hp46-EPD96z-160" style="edgeStyle=orthogonalEdgeStyle;rounded=0;orthogonalLoop=1;jettySize=auto;html=1;exitX=0.5;exitY=0.5;exitDx=0;exitDy=0;exitPerimeter=0;fontSize=23;entryX=1;entryY=0.5;entryDx=0;entryDy=0;" parent="1" source="tZeqiOX70hp46-EPD96z-156" target="tZeqiOX70hp46-EPD96z-152" edge="1">
          <mxGeometry relative="1" as="geometry">
            <mxPoint x="1428.9999999999995" y="1167" as="targetPoint" />
            <Array as="points">
              <mxPoint x="1472" y="1224" />
              <mxPoint x="1472" y="1177" />
            </Array>
          </mxGeometry>
        </mxCell>
        <mxCell id="tZeqiOX70hp46-EPD96z-156" value="analyst" style="shape=umlActor;verticalLabelPosition=bottom;verticalAlign=top;html=1;outlineConnect=0;fontSize=23;" parent="1" vertex="1">
          <mxGeometry x="1539" y="1194" width="30" height="60" as="geometry" />
        </mxCell>
        <mxCell id="tZeqiOX70hp46-EPD96z-161" style="edgeStyle=orthogonalEdgeStyle;rounded=0;orthogonalLoop=1;jettySize=auto;html=1;exitX=0.5;exitY=0.5;exitDx=0;exitDy=0;exitPerimeter=0;fontSize=23;entryX=1;entryY=0.5;entryDx=0;entryDy=0;" parent="1" source="tZeqiOX70hp46-EPD96z-157" target="tZeqiOX70hp46-EPD96z-152" edge="1">
          <mxGeometry relative="1" as="geometry">
            <mxPoint x="1428.9999999999995" y="1167" as="targetPoint" />
            <Array as="points">
              <mxPoint x="1472" y="1364" />
              <mxPoint x="1472" y="1177" />
            </Array>
          </mxGeometry>
        </mxCell>
        <mxCell id="tZeqiOX70hp46-EPD96z-157" value="analyst" style="shape=umlActor;verticalLabelPosition=bottom;verticalAlign=top;html=1;outlineConnect=0;fontSize=23;" parent="1" vertex="1">
          <mxGeometry x="1539" y="1334" width="30" height="60" as="geometry" />
        </mxCell>
        <mxCell id="d2Dc6NT3t0t4nk2ojeOt-27" style="edgeStyle=orthogonalEdgeStyle;rounded=0;orthogonalLoop=1;jettySize=auto;html=1;exitX=0.5;exitY=0;exitDx=0;exitDy=0;exitPerimeter=0;entryX=0;entryY=0;entryDx=0;entryDy=15;entryPerimeter=0;startArrow=classic;startFill=1;" edge="1" parent="1" source="d2Dc6NT3t0t4nk2ojeOt-2" target="d2Dc6NT3t0t4nk2ojeOt-25">
          <mxGeometry relative="1" as="geometry" />
        </mxCell>
        <mxCell id="d2Dc6NT3t0t4nk2ojeOt-2" value="reddis" style="shape=cylinder3;whiteSpace=wrap;html=1;boundedLbl=1;backgroundOutline=1;size=15;" vertex="1" parent="1">
          <mxGeometry x="713" y="278" width="55" height="40" as="geometry" />
        </mxCell>
        <mxCell id="d2Dc6NT3t0t4nk2ojeOt-29" style="edgeStyle=orthogonalEdgeStyle;rounded=0;orthogonalLoop=1;jettySize=auto;html=1;exitX=0.5;exitY=0;exitDx=0;exitDy=0;exitPerimeter=0;entryX=0.5;entryY=1;entryDx=0;entryDy=0;entryPerimeter=0;startArrow=classic;startFill=1;" edge="1" parent="1" source="d2Dc6NT3t0t4nk2ojeOt-3" target="d2Dc6NT3t0t4nk2ojeOt-25">
          <mxGeometry relative="1" as="geometry" />
        </mxCell>
        <mxCell id="d2Dc6NT3t0t4nk2ojeOt-3" value="reddis" style="shape=cylinder3;whiteSpace=wrap;html=1;boundedLbl=1;backgroundOutline=1;size=15;" vertex="1" parent="1">
          <mxGeometry x="776.75" y="278" width="55" height="40" as="geometry" />
        </mxCell>
        <mxCell id="d2Dc6NT3t0t4nk2ojeOt-30" style="edgeStyle=orthogonalEdgeStyle;rounded=0;orthogonalLoop=1;jettySize=auto;html=1;exitX=0.5;exitY=0;exitDx=0;exitDy=0;exitPerimeter=0;entryX=1;entryY=0;entryDx=0;entryDy=15;entryPerimeter=0;startArrow=classic;startFill=1;" edge="1" parent="1" source="d2Dc6NT3t0t4nk2ojeOt-5" target="d2Dc6NT3t0t4nk2ojeOt-25">
          <mxGeometry relative="1" as="geometry" />
        </mxCell>
        <mxCell id="d2Dc6NT3t0t4nk2ojeOt-5" value="reddis" style="shape=cylinder3;whiteSpace=wrap;html=1;boundedLbl=1;backgroundOutline=1;size=15;" vertex="1" parent="1">
          <mxGeometry x="840.5" y="278" width="55" height="40" as="geometry" />
        </mxCell>
        <mxCell id="d2Dc6NT3t0t4nk2ojeOt-15" style="edgeStyle=orthogonalEdgeStyle;rounded=0;orthogonalLoop=1;jettySize=auto;html=1;exitX=0.5;exitY=1;exitDx=0;exitDy=0;exitPerimeter=0;entryX=0;entryY=0;entryDx=0;entryDy=15;entryPerimeter=0;" edge="1" parent="1" source="d2Dc6NT3t0t4nk2ojeOt-6" target="tZeqiOX70hp46-EPD96z-8">
          <mxGeometry relative="1" as="geometry">
            <Array as="points">
              <mxPoint x="741" y="483" />
              <mxPoint x="741" y="483" />
              <mxPoint x="741" y="509" />
            </Array>
          </mxGeometry>
        </mxCell>
        <mxCell id="d2Dc6NT3t0t4nk2ojeOt-6" value="pg" style="shape=cylinder3;whiteSpace=wrap;html=1;boundedLbl=1;backgroundOutline=1;size=15;" vertex="1" parent="1">
          <mxGeometry x="713" y="438" width="55" height="40" as="geometry" />
        </mxCell>
        <mxCell id="d2Dc6NT3t0t4nk2ojeOt-16" style="edgeStyle=orthogonalEdgeStyle;rounded=0;orthogonalLoop=1;jettySize=auto;html=1;exitX=0.5;exitY=1;exitDx=0;exitDy=0;exitPerimeter=0;entryX=0.5;entryY=0;entryDx=0;entryDy=0;entryPerimeter=0;" edge="1" parent="1" source="d2Dc6NT3t0t4nk2ojeOt-7" target="tZeqiOX70hp46-EPD96z-8">
          <mxGeometry relative="1" as="geometry" />
        </mxCell>
        <mxCell id="d2Dc6NT3t0t4nk2ojeOt-7" value="pg" style="shape=cylinder3;whiteSpace=wrap;html=1;boundedLbl=1;backgroundOutline=1;size=15;" vertex="1" parent="1">
          <mxGeometry x="776.75" y="438" width="55" height="40" as="geometry" />
        </mxCell>
        <mxCell id="d2Dc6NT3t0t4nk2ojeOt-17" style="edgeStyle=orthogonalEdgeStyle;rounded=0;orthogonalLoop=1;jettySize=auto;html=1;exitX=0.5;exitY=1;exitDx=0;exitDy=0;exitPerimeter=0;entryX=0.993;entryY=0.237;entryDx=0;entryDy=0;entryPerimeter=0;" edge="1" parent="1" source="d2Dc6NT3t0t4nk2ojeOt-8" target="tZeqiOX70hp46-EPD96z-8">
          <mxGeometry relative="1" as="geometry">
            <Array as="points">
              <mxPoint x="868" y="506" />
            </Array>
          </mxGeometry>
        </mxCell>
        <mxCell id="d2Dc6NT3t0t4nk2ojeOt-8" value="pg" style="shape=cylinder3;whiteSpace=wrap;html=1;boundedLbl=1;backgroundOutline=1;size=15;" vertex="1" parent="1">
          <mxGeometry x="840.5" y="438" width="55" height="40" as="geometry" />
        </mxCell>
        <mxCell id="d2Dc6NT3t0t4nk2ojeOt-18" value="rabbit" style="shape=process;whiteSpace=wrap;html=1;backgroundOutline=1;" vertex="1" parent="1">
          <mxGeometry x="653" y="358" width="50" height="80" as="geometry" />
        </mxCell>
        <mxCell id="d2Dc6NT3t0t4nk2ojeOt-25" value="reddis" style="shape=cylinder3;whiteSpace=wrap;html=1;boundedLbl=1;backgroundOutline=1;size=15;" vertex="1" parent="1">
          <mxGeometry x="760" y="200" width="87.5" height="50" as="geometry" />
        </mxCell>
        <mxCell id="d2Dc6NT3t0t4nk2ojeOt-33" value="account" style="rounded=1;whiteSpace=wrap;html=1;labelPosition=center;verticalLabelPosition=top;align=center;verticalAlign=bottom;" vertex="1" parent="1">
          <mxGeometry x="640" y="588" width="270" height="370" as="geometry" />
        </mxCell>
        <mxCell id="d2Dc6NT3t0t4nk2ojeOt-34" style="edgeStyle=orthogonalEdgeStyle;rounded=0;orthogonalLoop=1;jettySize=auto;html=1;exitX=0.5;exitY=1;exitDx=0;exitDy=0;entryX=0.5;entryY=0;entryDx=0;entryDy=0;entryPerimeter=0;" edge="1" parent="1" source="d2Dc6NT3t0t4nk2ojeOt-37" target="d2Dc6NT3t0t4nk2ojeOt-54">
          <mxGeometry relative="1" as="geometry" />
        </mxCell>
        <mxCell id="d2Dc6NT3t0t4nk2ojeOt-35" style="edgeStyle=orthogonalEdgeStyle;rounded=0;orthogonalLoop=1;jettySize=auto;html=1;exitX=0.5;exitY=0;exitDx=0;exitDy=0;entryX=0.5;entryY=1;entryDx=0;entryDy=0;entryPerimeter=0;" edge="1" parent="1" source="d2Dc6NT3t0t4nk2ojeOt-37" target="d2Dc6NT3t0t4nk2ojeOt-48">
          <mxGeometry relative="1" as="geometry" />
        </mxCell>
        <mxCell id="d2Dc6NT3t0t4nk2ojeOt-36" style="edgeStyle=orthogonalEdgeStyle;rounded=0;orthogonalLoop=1;jettySize=auto;html=1;exitX=0.25;exitY=1;exitDx=0;exitDy=0;entryX=1;entryY=0.25;entryDx=0;entryDy=0;startArrow=classic;startFill=1;" edge="1" parent="1" source="d2Dc6NT3t0t4nk2ojeOt-37" target="d2Dc6NT3t0t4nk2ojeOt-59">
          <mxGeometry relative="1" as="geometry">
            <Array as="points">
              <mxPoint x="728" y="776" />
            </Array>
          </mxGeometry>
        </mxCell>
        <mxCell id="d2Dc6NT3t0t4nk2ojeOt-37" value="instance" style="rounded=1;whiteSpace=wrap;html=1;" vertex="1" parent="1">
          <mxGeometry x="715.5" y="736" width="50" height="20" as="geometry" />
        </mxCell>
        <mxCell id="d2Dc6NT3t0t4nk2ojeOt-38" style="edgeStyle=orthogonalEdgeStyle;rounded=0;orthogonalLoop=1;jettySize=auto;html=1;exitX=0.5;exitY=1;exitDx=0;exitDy=0;entryX=0.5;entryY=0;entryDx=0;entryDy=0;entryPerimeter=0;" edge="1" parent="1" source="d2Dc6NT3t0t4nk2ojeOt-41" target="d2Dc6NT3t0t4nk2ojeOt-56">
          <mxGeometry relative="1" as="geometry" />
        </mxCell>
        <mxCell id="d2Dc6NT3t0t4nk2ojeOt-39" style="edgeStyle=orthogonalEdgeStyle;rounded=0;orthogonalLoop=1;jettySize=auto;html=1;exitX=0.5;exitY=0;exitDx=0;exitDy=0;entryX=0.5;entryY=1;entryDx=0;entryDy=0;entryPerimeter=0;" edge="1" parent="1" source="d2Dc6NT3t0t4nk2ojeOt-41" target="d2Dc6NT3t0t4nk2ojeOt-50">
          <mxGeometry relative="1" as="geometry" />
        </mxCell>
        <mxCell id="d2Dc6NT3t0t4nk2ojeOt-40" style="edgeStyle=orthogonalEdgeStyle;rounded=0;orthogonalLoop=1;jettySize=auto;html=1;exitX=0.25;exitY=1;exitDx=0;exitDy=0;entryX=1;entryY=0.5;entryDx=0;entryDy=0;startArrow=classic;startFill=1;" edge="1" parent="1" source="d2Dc6NT3t0t4nk2ojeOt-41" target="d2Dc6NT3t0t4nk2ojeOt-59">
          <mxGeometry relative="1" as="geometry">
            <Array as="points">
              <mxPoint x="792" y="796" />
            </Array>
          </mxGeometry>
        </mxCell>
        <mxCell id="d2Dc6NT3t0t4nk2ojeOt-41" value="instance" style="rounded=1;whiteSpace=wrap;html=1;" vertex="1" parent="1">
          <mxGeometry x="779.25" y="736" width="50" height="20" as="geometry" />
        </mxCell>
        <mxCell id="d2Dc6NT3t0t4nk2ojeOt-42" style="edgeStyle=orthogonalEdgeStyle;rounded=0;orthogonalLoop=1;jettySize=auto;html=1;exitX=0.5;exitY=1;exitDx=0;exitDy=0;entryX=0.5;entryY=0;entryDx=0;entryDy=0;entryPerimeter=0;" edge="1" parent="1" source="d2Dc6NT3t0t4nk2ojeOt-45" target="d2Dc6NT3t0t4nk2ojeOt-58">
          <mxGeometry relative="1" as="geometry" />
        </mxCell>
        <mxCell id="d2Dc6NT3t0t4nk2ojeOt-43" style="edgeStyle=orthogonalEdgeStyle;rounded=0;orthogonalLoop=1;jettySize=auto;html=1;exitX=0.5;exitY=0;exitDx=0;exitDy=0;entryX=0.5;entryY=1;entryDx=0;entryDy=0;entryPerimeter=0;" edge="1" parent="1" source="d2Dc6NT3t0t4nk2ojeOt-45" target="d2Dc6NT3t0t4nk2ojeOt-52">
          <mxGeometry relative="1" as="geometry" />
        </mxCell>
        <mxCell id="d2Dc6NT3t0t4nk2ojeOt-44" style="edgeStyle=orthogonalEdgeStyle;rounded=0;orthogonalLoop=1;jettySize=auto;html=1;exitX=0.25;exitY=1;exitDx=0;exitDy=0;entryX=0.992;entryY=0.774;entryDx=0;entryDy=0;entryPerimeter=0;startArrow=classic;startFill=1;" edge="1" parent="1" source="d2Dc6NT3t0t4nk2ojeOt-45" target="d2Dc6NT3t0t4nk2ojeOt-59">
          <mxGeometry relative="1" as="geometry" />
        </mxCell>
        <mxCell id="d2Dc6NT3t0t4nk2ojeOt-45" value="instance" style="rounded=1;whiteSpace=wrap;html=1;" vertex="1" parent="1">
          <mxGeometry x="843" y="736" width="50" height="20" as="geometry" />
        </mxCell>
        <mxCell id="d2Dc6NT3t0t4nk2ojeOt-147" style="edgeStyle=orthogonalEdgeStyle;rounded=0;orthogonalLoop=1;jettySize=auto;html=1;exitX=0.5;exitY=1;exitDx=0;exitDy=0;exitPerimeter=0;entryX=0.271;entryY=0.007;entryDx=0;entryDy=0;entryPerimeter=0;startArrow=none;startFill=0;" edge="1" parent="1" source="d2Dc6NT3t0t4nk2ojeOt-46" target="I9GEyZ0ykOGTKjr3v0vk-110">
          <mxGeometry relative="1" as="geometry">
            <Array as="points">
              <mxPoint x="804" y="950" />
              <mxPoint x="1145" y="950" />
            </Array>
          </mxGeometry>
        </mxCell>
        <mxCell id="d2Dc6NT3t0t4nk2ojeOt-46" value="pg" style="shape=cylinder3;whiteSpace=wrap;html=1;boundedLbl=1;backgroundOutline=1;size=15;" vertex="1" parent="1">
          <mxGeometry x="760.5" y="892" width="87.5" height="50" as="geometry" />
        </mxCell>
        <mxCell id="d2Dc6NT3t0t4nk2ojeOt-47" style="edgeStyle=orthogonalEdgeStyle;rounded=0;orthogonalLoop=1;jettySize=auto;html=1;exitX=0.5;exitY=0;exitDx=0;exitDy=0;exitPerimeter=0;entryX=0;entryY=0;entryDx=0;entryDy=15;entryPerimeter=0;startArrow=classic;startFill=1;" edge="1" parent="1" source="d2Dc6NT3t0t4nk2ojeOt-48" target="d2Dc6NT3t0t4nk2ojeOt-60">
          <mxGeometry relative="1" as="geometry" />
        </mxCell>
        <mxCell id="d2Dc6NT3t0t4nk2ojeOt-48" value="reddis" style="shape=cylinder3;whiteSpace=wrap;html=1;boundedLbl=1;backgroundOutline=1;size=15;" vertex="1" parent="1">
          <mxGeometry x="713" y="676" width="55" height="40" as="geometry" />
        </mxCell>
        <mxCell id="d2Dc6NT3t0t4nk2ojeOt-49" style="edgeStyle=orthogonalEdgeStyle;rounded=0;orthogonalLoop=1;jettySize=auto;html=1;exitX=0.5;exitY=0;exitDx=0;exitDy=0;exitPerimeter=0;entryX=0.5;entryY=1;entryDx=0;entryDy=0;entryPerimeter=0;startArrow=classic;startFill=1;" edge="1" parent="1" source="d2Dc6NT3t0t4nk2ojeOt-50" target="d2Dc6NT3t0t4nk2ojeOt-60">
          <mxGeometry relative="1" as="geometry" />
        </mxCell>
        <mxCell id="d2Dc6NT3t0t4nk2ojeOt-50" value="reddis" style="shape=cylinder3;whiteSpace=wrap;html=1;boundedLbl=1;backgroundOutline=1;size=15;" vertex="1" parent="1">
          <mxGeometry x="776.75" y="676" width="55" height="40" as="geometry" />
        </mxCell>
        <mxCell id="d2Dc6NT3t0t4nk2ojeOt-51" style="edgeStyle=orthogonalEdgeStyle;rounded=0;orthogonalLoop=1;jettySize=auto;html=1;exitX=0.5;exitY=0;exitDx=0;exitDy=0;exitPerimeter=0;entryX=1;entryY=0;entryDx=0;entryDy=15;entryPerimeter=0;startArrow=classic;startFill=1;" edge="1" parent="1" source="d2Dc6NT3t0t4nk2ojeOt-52" target="d2Dc6NT3t0t4nk2ojeOt-60">
          <mxGeometry relative="1" as="geometry" />
        </mxCell>
        <mxCell id="d2Dc6NT3t0t4nk2ojeOt-52" value="reddis" style="shape=cylinder3;whiteSpace=wrap;html=1;boundedLbl=1;backgroundOutline=1;size=15;" vertex="1" parent="1">
          <mxGeometry x="840.5" y="676" width="55" height="40" as="geometry" />
        </mxCell>
        <mxCell id="d2Dc6NT3t0t4nk2ojeOt-53" style="edgeStyle=orthogonalEdgeStyle;rounded=0;orthogonalLoop=1;jettySize=auto;html=1;exitX=0.5;exitY=1;exitDx=0;exitDy=0;exitPerimeter=0;entryX=0;entryY=0;entryDx=0;entryDy=15;entryPerimeter=0;" edge="1" parent="1" source="d2Dc6NT3t0t4nk2ojeOt-54" target="d2Dc6NT3t0t4nk2ojeOt-46">
          <mxGeometry relative="1" as="geometry">
            <Array as="points">
              <mxPoint x="741" y="881" />
              <mxPoint x="741" y="881" />
              <mxPoint x="741" y="907" />
            </Array>
          </mxGeometry>
        </mxCell>
        <mxCell id="d2Dc6NT3t0t4nk2ojeOt-54" value="pg" style="shape=cylinder3;whiteSpace=wrap;html=1;boundedLbl=1;backgroundOutline=1;size=15;" vertex="1" parent="1">
          <mxGeometry x="713" y="836" width="55" height="40" as="geometry" />
        </mxCell>
        <mxCell id="d2Dc6NT3t0t4nk2ojeOt-55" style="edgeStyle=orthogonalEdgeStyle;rounded=0;orthogonalLoop=1;jettySize=auto;html=1;exitX=0.5;exitY=1;exitDx=0;exitDy=0;exitPerimeter=0;entryX=0.5;entryY=0;entryDx=0;entryDy=0;entryPerimeter=0;" edge="1" parent="1" source="d2Dc6NT3t0t4nk2ojeOt-56" target="d2Dc6NT3t0t4nk2ojeOt-46">
          <mxGeometry relative="1" as="geometry" />
        </mxCell>
        <mxCell id="d2Dc6NT3t0t4nk2ojeOt-56" value="pg" style="shape=cylinder3;whiteSpace=wrap;html=1;boundedLbl=1;backgroundOutline=1;size=15;" vertex="1" parent="1">
          <mxGeometry x="776.75" y="836" width="55" height="40" as="geometry" />
        </mxCell>
        <mxCell id="d2Dc6NT3t0t4nk2ojeOt-57" style="edgeStyle=orthogonalEdgeStyle;rounded=0;orthogonalLoop=1;jettySize=auto;html=1;exitX=0.5;exitY=1;exitDx=0;exitDy=0;exitPerimeter=0;entryX=0.993;entryY=0.237;entryDx=0;entryDy=0;entryPerimeter=0;" edge="1" parent="1" source="d2Dc6NT3t0t4nk2ojeOt-58" target="d2Dc6NT3t0t4nk2ojeOt-46">
          <mxGeometry relative="1" as="geometry">
            <Array as="points">
              <mxPoint x="868" y="904" />
            </Array>
          </mxGeometry>
        </mxCell>
        <mxCell id="d2Dc6NT3t0t4nk2ojeOt-58" value="pg" style="shape=cylinder3;whiteSpace=wrap;html=1;boundedLbl=1;backgroundOutline=1;size=15;" vertex="1" parent="1">
          <mxGeometry x="840.5" y="836" width="55" height="40" as="geometry" />
        </mxCell>
        <mxCell id="d2Dc6NT3t0t4nk2ojeOt-59" value="rabbit" style="shape=process;whiteSpace=wrap;html=1;backgroundOutline=1;" vertex="1" parent="1">
          <mxGeometry x="653" y="756" width="50" height="80" as="geometry" />
        </mxCell>
        <mxCell id="d2Dc6NT3t0t4nk2ojeOt-60" value="reddis" style="shape=cylinder3;whiteSpace=wrap;html=1;boundedLbl=1;backgroundOutline=1;size=15;" vertex="1" parent="1">
          <mxGeometry x="760" y="598" width="87.5" height="50" as="geometry" />
        </mxCell>
        <mxCell id="d2Dc6NT3t0t4nk2ojeOt-63" value="accounting-point" style="rounded=1;whiteSpace=wrap;html=1;labelPosition=center;verticalLabelPosition=top;align=center;verticalAlign=bottom;" vertex="1" parent="1">
          <mxGeometry x="660" y="991" width="270" height="370" as="geometry" />
        </mxCell>
        <mxCell id="d2Dc6NT3t0t4nk2ojeOt-64" style="edgeStyle=orthogonalEdgeStyle;rounded=0;orthogonalLoop=1;jettySize=auto;html=1;exitX=0.5;exitY=1;exitDx=0;exitDy=0;entryX=0.5;entryY=0;entryDx=0;entryDy=0;entryPerimeter=0;" edge="1" parent="1" source="d2Dc6NT3t0t4nk2ojeOt-67" target="d2Dc6NT3t0t4nk2ojeOt-84">
          <mxGeometry relative="1" as="geometry" />
        </mxCell>
        <mxCell id="d2Dc6NT3t0t4nk2ojeOt-65" style="edgeStyle=orthogonalEdgeStyle;rounded=0;orthogonalLoop=1;jettySize=auto;html=1;exitX=0.5;exitY=0;exitDx=0;exitDy=0;entryX=0.5;entryY=1;entryDx=0;entryDy=0;entryPerimeter=0;" edge="1" parent="1" source="d2Dc6NT3t0t4nk2ojeOt-67" target="d2Dc6NT3t0t4nk2ojeOt-78">
          <mxGeometry relative="1" as="geometry" />
        </mxCell>
        <mxCell id="d2Dc6NT3t0t4nk2ojeOt-66" style="edgeStyle=orthogonalEdgeStyle;rounded=0;orthogonalLoop=1;jettySize=auto;html=1;exitX=0.25;exitY=1;exitDx=0;exitDy=0;entryX=1;entryY=0.25;entryDx=0;entryDy=0;startArrow=classic;startFill=1;" edge="1" parent="1" source="d2Dc6NT3t0t4nk2ojeOt-67" target="d2Dc6NT3t0t4nk2ojeOt-89">
          <mxGeometry relative="1" as="geometry">
            <Array as="points">
              <mxPoint x="748" y="1179" />
            </Array>
          </mxGeometry>
        </mxCell>
        <mxCell id="d2Dc6NT3t0t4nk2ojeOt-67" value="instance" style="rounded=1;whiteSpace=wrap;html=1;" vertex="1" parent="1">
          <mxGeometry x="735.5" y="1139" width="50" height="20" as="geometry" />
        </mxCell>
        <mxCell id="d2Dc6NT3t0t4nk2ojeOt-68" style="edgeStyle=orthogonalEdgeStyle;rounded=0;orthogonalLoop=1;jettySize=auto;html=1;exitX=0.5;exitY=1;exitDx=0;exitDy=0;entryX=0.5;entryY=0;entryDx=0;entryDy=0;entryPerimeter=0;" edge="1" parent="1" source="d2Dc6NT3t0t4nk2ojeOt-71" target="d2Dc6NT3t0t4nk2ojeOt-86">
          <mxGeometry relative="1" as="geometry" />
        </mxCell>
        <mxCell id="d2Dc6NT3t0t4nk2ojeOt-69" style="edgeStyle=orthogonalEdgeStyle;rounded=0;orthogonalLoop=1;jettySize=auto;html=1;exitX=0.5;exitY=0;exitDx=0;exitDy=0;entryX=0.5;entryY=1;entryDx=0;entryDy=0;entryPerimeter=0;" edge="1" parent="1" source="d2Dc6NT3t0t4nk2ojeOt-71" target="d2Dc6NT3t0t4nk2ojeOt-80">
          <mxGeometry relative="1" as="geometry" />
        </mxCell>
        <mxCell id="d2Dc6NT3t0t4nk2ojeOt-70" style="edgeStyle=orthogonalEdgeStyle;rounded=0;orthogonalLoop=1;jettySize=auto;html=1;exitX=0.25;exitY=1;exitDx=0;exitDy=0;entryX=1;entryY=0.5;entryDx=0;entryDy=0;startArrow=classic;startFill=1;" edge="1" parent="1" source="d2Dc6NT3t0t4nk2ojeOt-71" target="d2Dc6NT3t0t4nk2ojeOt-89">
          <mxGeometry relative="1" as="geometry">
            <Array as="points">
              <mxPoint x="812" y="1199" />
            </Array>
          </mxGeometry>
        </mxCell>
        <mxCell id="d2Dc6NT3t0t4nk2ojeOt-71" value="instance" style="rounded=1;whiteSpace=wrap;html=1;" vertex="1" parent="1">
          <mxGeometry x="799.25" y="1139" width="50" height="20" as="geometry" />
        </mxCell>
        <mxCell id="d2Dc6NT3t0t4nk2ojeOt-72" style="edgeStyle=orthogonalEdgeStyle;rounded=0;orthogonalLoop=1;jettySize=auto;html=1;exitX=0.5;exitY=1;exitDx=0;exitDy=0;entryX=0.5;entryY=0;entryDx=0;entryDy=0;entryPerimeter=0;" edge="1" parent="1" source="d2Dc6NT3t0t4nk2ojeOt-75" target="d2Dc6NT3t0t4nk2ojeOt-88">
          <mxGeometry relative="1" as="geometry" />
        </mxCell>
        <mxCell id="d2Dc6NT3t0t4nk2ojeOt-73" style="edgeStyle=orthogonalEdgeStyle;rounded=0;orthogonalLoop=1;jettySize=auto;html=1;exitX=0.5;exitY=0;exitDx=0;exitDy=0;entryX=0.5;entryY=1;entryDx=0;entryDy=0;entryPerimeter=0;" edge="1" parent="1" source="d2Dc6NT3t0t4nk2ojeOt-75" target="d2Dc6NT3t0t4nk2ojeOt-82">
          <mxGeometry relative="1" as="geometry" />
        </mxCell>
        <mxCell id="d2Dc6NT3t0t4nk2ojeOt-74" style="edgeStyle=orthogonalEdgeStyle;rounded=0;orthogonalLoop=1;jettySize=auto;html=1;exitX=0.25;exitY=1;exitDx=0;exitDy=0;entryX=0.992;entryY=0.774;entryDx=0;entryDy=0;entryPerimeter=0;startArrow=classic;startFill=1;" edge="1" parent="1" source="d2Dc6NT3t0t4nk2ojeOt-75" target="d2Dc6NT3t0t4nk2ojeOt-89">
          <mxGeometry relative="1" as="geometry" />
        </mxCell>
        <mxCell id="d2Dc6NT3t0t4nk2ojeOt-75" value="instance" style="rounded=1;whiteSpace=wrap;html=1;" vertex="1" parent="1">
          <mxGeometry x="863" y="1139" width="50" height="20" as="geometry" />
        </mxCell>
        <mxCell id="d2Dc6NT3t0t4nk2ojeOt-148" style="edgeStyle=orthogonalEdgeStyle;rounded=0;orthogonalLoop=1;jettySize=auto;html=1;exitX=0.5;exitY=1;exitDx=0;exitDy=0;exitPerimeter=0;entryX=0.145;entryY=1;entryDx=0;entryDy=-4.35;entryPerimeter=0;startArrow=none;startFill=0;" edge="1" parent="1" source="d2Dc6NT3t0t4nk2ojeOt-76" target="I9GEyZ0ykOGTKjr3v0vk-110">
          <mxGeometry relative="1" as="geometry">
            <Array as="points">
              <mxPoint x="824" y="1350" />
              <mxPoint x="1125" y="1350" />
            </Array>
          </mxGeometry>
        </mxCell>
        <mxCell id="d2Dc6NT3t0t4nk2ojeOt-76" value="pg" style="shape=cylinder3;whiteSpace=wrap;html=1;boundedLbl=1;backgroundOutline=1;size=15;" vertex="1" parent="1">
          <mxGeometry x="780.5" y="1295" width="87.5" height="50" as="geometry" />
        </mxCell>
        <mxCell id="d2Dc6NT3t0t4nk2ojeOt-77" style="edgeStyle=orthogonalEdgeStyle;rounded=0;orthogonalLoop=1;jettySize=auto;html=1;exitX=0.5;exitY=0;exitDx=0;exitDy=0;exitPerimeter=0;entryX=0;entryY=0;entryDx=0;entryDy=15;entryPerimeter=0;startArrow=classic;startFill=1;" edge="1" parent="1" source="d2Dc6NT3t0t4nk2ojeOt-78" target="d2Dc6NT3t0t4nk2ojeOt-90">
          <mxGeometry relative="1" as="geometry" />
        </mxCell>
        <mxCell id="d2Dc6NT3t0t4nk2ojeOt-78" value="reddis" style="shape=cylinder3;whiteSpace=wrap;html=1;boundedLbl=1;backgroundOutline=1;size=15;" vertex="1" parent="1">
          <mxGeometry x="733" y="1079" width="55" height="40" as="geometry" />
        </mxCell>
        <mxCell id="d2Dc6NT3t0t4nk2ojeOt-79" style="edgeStyle=orthogonalEdgeStyle;rounded=0;orthogonalLoop=1;jettySize=auto;html=1;exitX=0.5;exitY=0;exitDx=0;exitDy=0;exitPerimeter=0;entryX=0.5;entryY=1;entryDx=0;entryDy=0;entryPerimeter=0;startArrow=classic;startFill=1;" edge="1" parent="1" source="d2Dc6NT3t0t4nk2ojeOt-80" target="d2Dc6NT3t0t4nk2ojeOt-90">
          <mxGeometry relative="1" as="geometry" />
        </mxCell>
        <mxCell id="d2Dc6NT3t0t4nk2ojeOt-80" value="reddis" style="shape=cylinder3;whiteSpace=wrap;html=1;boundedLbl=1;backgroundOutline=1;size=15;" vertex="1" parent="1">
          <mxGeometry x="796.75" y="1079" width="55" height="40" as="geometry" />
        </mxCell>
        <mxCell id="d2Dc6NT3t0t4nk2ojeOt-81" style="edgeStyle=orthogonalEdgeStyle;rounded=0;orthogonalLoop=1;jettySize=auto;html=1;exitX=0.5;exitY=0;exitDx=0;exitDy=0;exitPerimeter=0;entryX=1;entryY=0;entryDx=0;entryDy=15;entryPerimeter=0;startArrow=classic;startFill=1;" edge="1" parent="1" source="d2Dc6NT3t0t4nk2ojeOt-82" target="d2Dc6NT3t0t4nk2ojeOt-90">
          <mxGeometry relative="1" as="geometry" />
        </mxCell>
        <mxCell id="d2Dc6NT3t0t4nk2ojeOt-82" value="reddis" style="shape=cylinder3;whiteSpace=wrap;html=1;boundedLbl=1;backgroundOutline=1;size=15;" vertex="1" parent="1">
          <mxGeometry x="860.5" y="1079" width="55" height="40" as="geometry" />
        </mxCell>
        <mxCell id="d2Dc6NT3t0t4nk2ojeOt-83" style="edgeStyle=orthogonalEdgeStyle;rounded=0;orthogonalLoop=1;jettySize=auto;html=1;exitX=0.5;exitY=1;exitDx=0;exitDy=0;exitPerimeter=0;entryX=0;entryY=0;entryDx=0;entryDy=15;entryPerimeter=0;" edge="1" parent="1" source="d2Dc6NT3t0t4nk2ojeOt-84" target="d2Dc6NT3t0t4nk2ojeOt-76">
          <mxGeometry relative="1" as="geometry">
            <Array as="points">
              <mxPoint x="761" y="1284" />
              <mxPoint x="761" y="1284" />
              <mxPoint x="761" y="1310" />
            </Array>
          </mxGeometry>
        </mxCell>
        <mxCell id="d2Dc6NT3t0t4nk2ojeOt-84" value="pg" style="shape=cylinder3;whiteSpace=wrap;html=1;boundedLbl=1;backgroundOutline=1;size=15;" vertex="1" parent="1">
          <mxGeometry x="733" y="1239" width="55" height="40" as="geometry" />
        </mxCell>
        <mxCell id="d2Dc6NT3t0t4nk2ojeOt-85" style="edgeStyle=orthogonalEdgeStyle;rounded=0;orthogonalLoop=1;jettySize=auto;html=1;exitX=0.5;exitY=1;exitDx=0;exitDy=0;exitPerimeter=0;entryX=0.5;entryY=0;entryDx=0;entryDy=0;entryPerimeter=0;" edge="1" parent="1" source="d2Dc6NT3t0t4nk2ojeOt-86" target="d2Dc6NT3t0t4nk2ojeOt-76">
          <mxGeometry relative="1" as="geometry" />
        </mxCell>
        <mxCell id="d2Dc6NT3t0t4nk2ojeOt-86" value="pg" style="shape=cylinder3;whiteSpace=wrap;html=1;boundedLbl=1;backgroundOutline=1;size=15;" vertex="1" parent="1">
          <mxGeometry x="796.75" y="1239" width="55" height="40" as="geometry" />
        </mxCell>
        <mxCell id="d2Dc6NT3t0t4nk2ojeOt-87" style="edgeStyle=orthogonalEdgeStyle;rounded=0;orthogonalLoop=1;jettySize=auto;html=1;exitX=0.5;exitY=1;exitDx=0;exitDy=0;exitPerimeter=0;entryX=0.993;entryY=0.237;entryDx=0;entryDy=0;entryPerimeter=0;" edge="1" parent="1" source="d2Dc6NT3t0t4nk2ojeOt-88" target="d2Dc6NT3t0t4nk2ojeOt-76">
          <mxGeometry relative="1" as="geometry">
            <Array as="points">
              <mxPoint x="888" y="1307" />
            </Array>
          </mxGeometry>
        </mxCell>
        <mxCell id="d2Dc6NT3t0t4nk2ojeOt-88" value="pg" style="shape=cylinder3;whiteSpace=wrap;html=1;boundedLbl=1;backgroundOutline=1;size=15;" vertex="1" parent="1">
          <mxGeometry x="860.5" y="1239" width="55" height="40" as="geometry" />
        </mxCell>
        <mxCell id="d2Dc6NT3t0t4nk2ojeOt-89" value="rabbit" style="shape=process;whiteSpace=wrap;html=1;backgroundOutline=1;" vertex="1" parent="1">
          <mxGeometry x="673" y="1159" width="50" height="80" as="geometry" />
        </mxCell>
        <mxCell id="d2Dc6NT3t0t4nk2ojeOt-90" value="reddis" style="shape=cylinder3;whiteSpace=wrap;html=1;boundedLbl=1;backgroundOutline=1;size=15;" vertex="1" parent="1">
          <mxGeometry x="780" y="1001" width="87.5" height="50" as="geometry" />
        </mxCell>
        <mxCell id="d2Dc6NT3t0t4nk2ojeOt-91" value="meter-values" style="rounded=1;whiteSpace=wrap;html=1;labelPosition=center;verticalLabelPosition=top;align=center;verticalAlign=bottom;" vertex="1" parent="1">
          <mxGeometry x="668.75" y="1390" width="270" height="370" as="geometry" />
        </mxCell>
        <mxCell id="d2Dc6NT3t0t4nk2ojeOt-92" style="edgeStyle=orthogonalEdgeStyle;rounded=0;orthogonalLoop=1;jettySize=auto;html=1;exitX=0.5;exitY=1;exitDx=0;exitDy=0;entryX=0.5;entryY=0;entryDx=0;entryDy=0;entryPerimeter=0;" edge="1" parent="1" source="d2Dc6NT3t0t4nk2ojeOt-95" target="d2Dc6NT3t0t4nk2ojeOt-112">
          <mxGeometry relative="1" as="geometry" />
        </mxCell>
        <mxCell id="d2Dc6NT3t0t4nk2ojeOt-93" style="edgeStyle=orthogonalEdgeStyle;rounded=0;orthogonalLoop=1;jettySize=auto;html=1;exitX=0.5;exitY=0;exitDx=0;exitDy=0;entryX=0.5;entryY=1;entryDx=0;entryDy=0;entryPerimeter=0;" edge="1" parent="1" source="d2Dc6NT3t0t4nk2ojeOt-95" target="d2Dc6NT3t0t4nk2ojeOt-106">
          <mxGeometry relative="1" as="geometry" />
        </mxCell>
        <mxCell id="d2Dc6NT3t0t4nk2ojeOt-94" style="edgeStyle=orthogonalEdgeStyle;rounded=0;orthogonalLoop=1;jettySize=auto;html=1;exitX=0.25;exitY=1;exitDx=0;exitDy=0;entryX=1;entryY=0.25;entryDx=0;entryDy=0;startArrow=classic;startFill=1;" edge="1" parent="1" source="d2Dc6NT3t0t4nk2ojeOt-95" target="d2Dc6NT3t0t4nk2ojeOt-117">
          <mxGeometry relative="1" as="geometry">
            <Array as="points">
              <mxPoint x="756.75" y="1578" />
            </Array>
          </mxGeometry>
        </mxCell>
        <mxCell id="d2Dc6NT3t0t4nk2ojeOt-95" value="instance" style="rounded=1;whiteSpace=wrap;html=1;" vertex="1" parent="1">
          <mxGeometry x="744.25" y="1538" width="50" height="20" as="geometry" />
        </mxCell>
        <mxCell id="d2Dc6NT3t0t4nk2ojeOt-96" style="edgeStyle=orthogonalEdgeStyle;rounded=0;orthogonalLoop=1;jettySize=auto;html=1;exitX=0.5;exitY=1;exitDx=0;exitDy=0;entryX=0.5;entryY=0;entryDx=0;entryDy=0;entryPerimeter=0;" edge="1" parent="1" source="d2Dc6NT3t0t4nk2ojeOt-99" target="d2Dc6NT3t0t4nk2ojeOt-114">
          <mxGeometry relative="1" as="geometry" />
        </mxCell>
        <mxCell id="d2Dc6NT3t0t4nk2ojeOt-97" style="edgeStyle=orthogonalEdgeStyle;rounded=0;orthogonalLoop=1;jettySize=auto;html=1;exitX=0.5;exitY=0;exitDx=0;exitDy=0;entryX=0.5;entryY=1;entryDx=0;entryDy=0;entryPerimeter=0;" edge="1" parent="1" source="d2Dc6NT3t0t4nk2ojeOt-99" target="d2Dc6NT3t0t4nk2ojeOt-108">
          <mxGeometry relative="1" as="geometry" />
        </mxCell>
        <mxCell id="d2Dc6NT3t0t4nk2ojeOt-98" style="edgeStyle=orthogonalEdgeStyle;rounded=0;orthogonalLoop=1;jettySize=auto;html=1;exitX=0.25;exitY=1;exitDx=0;exitDy=0;entryX=1;entryY=0.5;entryDx=0;entryDy=0;startArrow=classic;startFill=1;" edge="1" parent="1" source="d2Dc6NT3t0t4nk2ojeOt-99" target="d2Dc6NT3t0t4nk2ojeOt-117">
          <mxGeometry relative="1" as="geometry">
            <Array as="points">
              <mxPoint x="820.75" y="1598" />
            </Array>
          </mxGeometry>
        </mxCell>
        <mxCell id="d2Dc6NT3t0t4nk2ojeOt-99" value="instance" style="rounded=1;whiteSpace=wrap;html=1;" vertex="1" parent="1">
          <mxGeometry x="808" y="1538" width="50" height="20" as="geometry" />
        </mxCell>
        <mxCell id="d2Dc6NT3t0t4nk2ojeOt-100" style="edgeStyle=orthogonalEdgeStyle;rounded=0;orthogonalLoop=1;jettySize=auto;html=1;exitX=0.5;exitY=1;exitDx=0;exitDy=0;entryX=0.5;entryY=0;entryDx=0;entryDy=0;entryPerimeter=0;" edge="1" parent="1" source="d2Dc6NT3t0t4nk2ojeOt-103" target="d2Dc6NT3t0t4nk2ojeOt-116">
          <mxGeometry relative="1" as="geometry" />
        </mxCell>
        <mxCell id="d2Dc6NT3t0t4nk2ojeOt-101" style="edgeStyle=orthogonalEdgeStyle;rounded=0;orthogonalLoop=1;jettySize=auto;html=1;exitX=0.5;exitY=0;exitDx=0;exitDy=0;entryX=0.5;entryY=1;entryDx=0;entryDy=0;entryPerimeter=0;" edge="1" parent="1" source="d2Dc6NT3t0t4nk2ojeOt-103" target="d2Dc6NT3t0t4nk2ojeOt-110">
          <mxGeometry relative="1" as="geometry" />
        </mxCell>
        <mxCell id="d2Dc6NT3t0t4nk2ojeOt-102" style="edgeStyle=orthogonalEdgeStyle;rounded=0;orthogonalLoop=1;jettySize=auto;html=1;exitX=0.25;exitY=1;exitDx=0;exitDy=0;entryX=0.992;entryY=0.774;entryDx=0;entryDy=0;entryPerimeter=0;startArrow=classic;startFill=1;" edge="1" parent="1" source="d2Dc6NT3t0t4nk2ojeOt-103" target="d2Dc6NT3t0t4nk2ojeOt-117">
          <mxGeometry relative="1" as="geometry" />
        </mxCell>
        <mxCell id="d2Dc6NT3t0t4nk2ojeOt-103" value="instance" style="rounded=1;whiteSpace=wrap;html=1;" vertex="1" parent="1">
          <mxGeometry x="871.75" y="1538" width="50" height="20" as="geometry" />
        </mxCell>
        <mxCell id="d2Dc6NT3t0t4nk2ojeOt-149" style="edgeStyle=orthogonalEdgeStyle;rounded=0;orthogonalLoop=1;jettySize=auto;html=1;exitX=0.5;exitY=1;exitDx=0;exitDy=0;exitPerimeter=0;entryX=0.5;entryY=1;entryDx=0;entryDy=0;entryPerimeter=0;startArrow=none;startFill=0;" edge="1" parent="1" source="d2Dc6NT3t0t4nk2ojeOt-104" target="I9GEyZ0ykOGTKjr3v0vk-110">
          <mxGeometry relative="1" as="geometry">
            <Array as="points">
              <mxPoint x="833" y="1750" />
              <mxPoint x="1182" y="1750" />
            </Array>
          </mxGeometry>
        </mxCell>
        <mxCell id="d2Dc6NT3t0t4nk2ojeOt-104" value="pg" style="shape=cylinder3;whiteSpace=wrap;html=1;boundedLbl=1;backgroundOutline=1;size=15;" vertex="1" parent="1">
          <mxGeometry x="789.25" y="1694" width="87.5" height="50" as="geometry" />
        </mxCell>
        <mxCell id="d2Dc6NT3t0t4nk2ojeOt-105" style="edgeStyle=orthogonalEdgeStyle;rounded=0;orthogonalLoop=1;jettySize=auto;html=1;exitX=0.5;exitY=0;exitDx=0;exitDy=0;exitPerimeter=0;entryX=0;entryY=0;entryDx=0;entryDy=15;entryPerimeter=0;startArrow=classic;startFill=1;" edge="1" parent="1" source="d2Dc6NT3t0t4nk2ojeOt-106" target="d2Dc6NT3t0t4nk2ojeOt-118">
          <mxGeometry relative="1" as="geometry" />
        </mxCell>
        <mxCell id="d2Dc6NT3t0t4nk2ojeOt-106" value="reddis" style="shape=cylinder3;whiteSpace=wrap;html=1;boundedLbl=1;backgroundOutline=1;size=15;" vertex="1" parent="1">
          <mxGeometry x="741.75" y="1478" width="55" height="40" as="geometry" />
        </mxCell>
        <mxCell id="d2Dc6NT3t0t4nk2ojeOt-107" style="edgeStyle=orthogonalEdgeStyle;rounded=0;orthogonalLoop=1;jettySize=auto;html=1;exitX=0.5;exitY=0;exitDx=0;exitDy=0;exitPerimeter=0;entryX=0.5;entryY=1;entryDx=0;entryDy=0;entryPerimeter=0;startArrow=classic;startFill=1;" edge="1" parent="1" source="d2Dc6NT3t0t4nk2ojeOt-108" target="d2Dc6NT3t0t4nk2ojeOt-118">
          <mxGeometry relative="1" as="geometry" />
        </mxCell>
        <mxCell id="d2Dc6NT3t0t4nk2ojeOt-108" value="reddis" style="shape=cylinder3;whiteSpace=wrap;html=1;boundedLbl=1;backgroundOutline=1;size=15;" vertex="1" parent="1">
          <mxGeometry x="805.5" y="1478" width="55" height="40" as="geometry" />
        </mxCell>
        <mxCell id="d2Dc6NT3t0t4nk2ojeOt-109" style="edgeStyle=orthogonalEdgeStyle;rounded=0;orthogonalLoop=1;jettySize=auto;html=1;exitX=0.5;exitY=0;exitDx=0;exitDy=0;exitPerimeter=0;entryX=1;entryY=0;entryDx=0;entryDy=15;entryPerimeter=0;startArrow=classic;startFill=1;" edge="1" parent="1" source="d2Dc6NT3t0t4nk2ojeOt-110" target="d2Dc6NT3t0t4nk2ojeOt-118">
          <mxGeometry relative="1" as="geometry" />
        </mxCell>
        <mxCell id="d2Dc6NT3t0t4nk2ojeOt-110" value="reddis" style="shape=cylinder3;whiteSpace=wrap;html=1;boundedLbl=1;backgroundOutline=1;size=15;" vertex="1" parent="1">
          <mxGeometry x="869.25" y="1478" width="55" height="40" as="geometry" />
        </mxCell>
        <mxCell id="d2Dc6NT3t0t4nk2ojeOt-111" style="edgeStyle=orthogonalEdgeStyle;rounded=0;orthogonalLoop=1;jettySize=auto;html=1;exitX=0.5;exitY=1;exitDx=0;exitDy=0;exitPerimeter=0;entryX=0;entryY=0;entryDx=0;entryDy=15;entryPerimeter=0;" edge="1" parent="1" source="d2Dc6NT3t0t4nk2ojeOt-112" target="d2Dc6NT3t0t4nk2ojeOt-104">
          <mxGeometry relative="1" as="geometry">
            <Array as="points">
              <mxPoint x="769.75" y="1683" />
              <mxPoint x="769.75" y="1683" />
              <mxPoint x="769.75" y="1709" />
            </Array>
          </mxGeometry>
        </mxCell>
        <mxCell id="d2Dc6NT3t0t4nk2ojeOt-112" value="pg" style="shape=cylinder3;whiteSpace=wrap;html=1;boundedLbl=1;backgroundOutline=1;size=15;" vertex="1" parent="1">
          <mxGeometry x="741.75" y="1638" width="55" height="40" as="geometry" />
        </mxCell>
        <mxCell id="d2Dc6NT3t0t4nk2ojeOt-113" style="edgeStyle=orthogonalEdgeStyle;rounded=0;orthogonalLoop=1;jettySize=auto;html=1;exitX=0.5;exitY=1;exitDx=0;exitDy=0;exitPerimeter=0;entryX=0.5;entryY=0;entryDx=0;entryDy=0;entryPerimeter=0;" edge="1" parent="1" source="d2Dc6NT3t0t4nk2ojeOt-114" target="d2Dc6NT3t0t4nk2ojeOt-104">
          <mxGeometry relative="1" as="geometry" />
        </mxCell>
        <mxCell id="d2Dc6NT3t0t4nk2ojeOt-114" value="pg" style="shape=cylinder3;whiteSpace=wrap;html=1;boundedLbl=1;backgroundOutline=1;size=15;" vertex="1" parent="1">
          <mxGeometry x="805.5" y="1638" width="55" height="40" as="geometry" />
        </mxCell>
        <mxCell id="d2Dc6NT3t0t4nk2ojeOt-115" style="edgeStyle=orthogonalEdgeStyle;rounded=0;orthogonalLoop=1;jettySize=auto;html=1;exitX=0.5;exitY=1;exitDx=0;exitDy=0;exitPerimeter=0;entryX=0.993;entryY=0.237;entryDx=0;entryDy=0;entryPerimeter=0;" edge="1" parent="1" source="d2Dc6NT3t0t4nk2ojeOt-116" target="d2Dc6NT3t0t4nk2ojeOt-104">
          <mxGeometry relative="1" as="geometry">
            <Array as="points">
              <mxPoint x="896.75" y="1706" />
            </Array>
          </mxGeometry>
        </mxCell>
        <mxCell id="d2Dc6NT3t0t4nk2ojeOt-116" value="pg" style="shape=cylinder3;whiteSpace=wrap;html=1;boundedLbl=1;backgroundOutline=1;size=15;" vertex="1" parent="1">
          <mxGeometry x="869.25" y="1638" width="55" height="40" as="geometry" />
        </mxCell>
        <mxCell id="d2Dc6NT3t0t4nk2ojeOt-117" value="rabbit" style="shape=process;whiteSpace=wrap;html=1;backgroundOutline=1;" vertex="1" parent="1">
          <mxGeometry x="681.75" y="1558" width="50" height="80" as="geometry" />
        </mxCell>
        <mxCell id="d2Dc6NT3t0t4nk2ojeOt-118" value="reddis" style="shape=cylinder3;whiteSpace=wrap;html=1;boundedLbl=1;backgroundOutline=1;size=15;" vertex="1" parent="1">
          <mxGeometry x="788.75" y="1400" width="87.5" height="50" as="geometry" />
        </mxCell>
        <mxCell id="d2Dc6NT3t0t4nk2ojeOt-119" value="calculation" style="rounded=1;whiteSpace=wrap;html=1;labelPosition=center;verticalLabelPosition=top;align=center;verticalAlign=bottom;" vertex="1" parent="1">
          <mxGeometry x="669.25" y="1790" width="270" height="370" as="geometry" />
        </mxCell>
        <mxCell id="d2Dc6NT3t0t4nk2ojeOt-120" style="edgeStyle=orthogonalEdgeStyle;rounded=0;orthogonalLoop=1;jettySize=auto;html=1;exitX=0.5;exitY=1;exitDx=0;exitDy=0;entryX=0.5;entryY=0;entryDx=0;entryDy=0;entryPerimeter=0;" edge="1" parent="1" source="d2Dc6NT3t0t4nk2ojeOt-123" target="d2Dc6NT3t0t4nk2ojeOt-140">
          <mxGeometry relative="1" as="geometry" />
        </mxCell>
        <mxCell id="d2Dc6NT3t0t4nk2ojeOt-121" style="edgeStyle=orthogonalEdgeStyle;rounded=0;orthogonalLoop=1;jettySize=auto;html=1;exitX=0.5;exitY=0;exitDx=0;exitDy=0;entryX=0.5;entryY=1;entryDx=0;entryDy=0;entryPerimeter=0;" edge="1" parent="1" source="d2Dc6NT3t0t4nk2ojeOt-123" target="d2Dc6NT3t0t4nk2ojeOt-134">
          <mxGeometry relative="1" as="geometry" />
        </mxCell>
        <mxCell id="d2Dc6NT3t0t4nk2ojeOt-122" style="edgeStyle=orthogonalEdgeStyle;rounded=0;orthogonalLoop=1;jettySize=auto;html=1;exitX=0.25;exitY=1;exitDx=0;exitDy=0;entryX=1;entryY=0.25;entryDx=0;entryDy=0;startArrow=classic;startFill=1;" edge="1" parent="1" source="d2Dc6NT3t0t4nk2ojeOt-123" target="d2Dc6NT3t0t4nk2ojeOt-145">
          <mxGeometry relative="1" as="geometry">
            <Array as="points">
              <mxPoint x="757.25" y="1978" />
            </Array>
          </mxGeometry>
        </mxCell>
        <mxCell id="d2Dc6NT3t0t4nk2ojeOt-123" value="instance" style="rounded=1;whiteSpace=wrap;html=1;" vertex="1" parent="1">
          <mxGeometry x="744.75" y="1938" width="50" height="20" as="geometry" />
        </mxCell>
        <mxCell id="d2Dc6NT3t0t4nk2ojeOt-124" style="edgeStyle=orthogonalEdgeStyle;rounded=0;orthogonalLoop=1;jettySize=auto;html=1;exitX=0.5;exitY=1;exitDx=0;exitDy=0;entryX=0.5;entryY=0;entryDx=0;entryDy=0;entryPerimeter=0;" edge="1" parent="1" source="d2Dc6NT3t0t4nk2ojeOt-127" target="d2Dc6NT3t0t4nk2ojeOt-142">
          <mxGeometry relative="1" as="geometry" />
        </mxCell>
        <mxCell id="d2Dc6NT3t0t4nk2ojeOt-125" style="edgeStyle=orthogonalEdgeStyle;rounded=0;orthogonalLoop=1;jettySize=auto;html=1;exitX=0.5;exitY=0;exitDx=0;exitDy=0;entryX=0.5;entryY=1;entryDx=0;entryDy=0;entryPerimeter=0;" edge="1" parent="1" source="d2Dc6NT3t0t4nk2ojeOt-127" target="d2Dc6NT3t0t4nk2ojeOt-136">
          <mxGeometry relative="1" as="geometry" />
        </mxCell>
        <mxCell id="d2Dc6NT3t0t4nk2ojeOt-126" style="edgeStyle=orthogonalEdgeStyle;rounded=0;orthogonalLoop=1;jettySize=auto;html=1;exitX=0.25;exitY=1;exitDx=0;exitDy=0;entryX=1;entryY=0.5;entryDx=0;entryDy=0;startArrow=classic;startFill=1;" edge="1" parent="1" source="d2Dc6NT3t0t4nk2ojeOt-127" target="d2Dc6NT3t0t4nk2ojeOt-145">
          <mxGeometry relative="1" as="geometry">
            <Array as="points">
              <mxPoint x="821.25" y="1998" />
            </Array>
          </mxGeometry>
        </mxCell>
        <mxCell id="d2Dc6NT3t0t4nk2ojeOt-127" value="instance" style="rounded=1;whiteSpace=wrap;html=1;" vertex="1" parent="1">
          <mxGeometry x="808.5" y="1938" width="50" height="20" as="geometry" />
        </mxCell>
        <mxCell id="d2Dc6NT3t0t4nk2ojeOt-128" style="edgeStyle=orthogonalEdgeStyle;rounded=0;orthogonalLoop=1;jettySize=auto;html=1;exitX=0.5;exitY=1;exitDx=0;exitDy=0;entryX=0.5;entryY=0;entryDx=0;entryDy=0;entryPerimeter=0;" edge="1" parent="1" source="d2Dc6NT3t0t4nk2ojeOt-131" target="d2Dc6NT3t0t4nk2ojeOt-144">
          <mxGeometry relative="1" as="geometry" />
        </mxCell>
        <mxCell id="d2Dc6NT3t0t4nk2ojeOt-129" style="edgeStyle=orthogonalEdgeStyle;rounded=0;orthogonalLoop=1;jettySize=auto;html=1;exitX=0.5;exitY=0;exitDx=0;exitDy=0;entryX=0.5;entryY=1;entryDx=0;entryDy=0;entryPerimeter=0;" edge="1" parent="1" source="d2Dc6NT3t0t4nk2ojeOt-131" target="d2Dc6NT3t0t4nk2ojeOt-138">
          <mxGeometry relative="1" as="geometry" />
        </mxCell>
        <mxCell id="d2Dc6NT3t0t4nk2ojeOt-130" style="edgeStyle=orthogonalEdgeStyle;rounded=0;orthogonalLoop=1;jettySize=auto;html=1;exitX=0.25;exitY=1;exitDx=0;exitDy=0;entryX=0.992;entryY=0.774;entryDx=0;entryDy=0;entryPerimeter=0;startArrow=classic;startFill=1;" edge="1" parent="1" source="d2Dc6NT3t0t4nk2ojeOt-131" target="d2Dc6NT3t0t4nk2ojeOt-145">
          <mxGeometry relative="1" as="geometry" />
        </mxCell>
        <mxCell id="d2Dc6NT3t0t4nk2ojeOt-131" value="instance" style="rounded=1;whiteSpace=wrap;html=1;" vertex="1" parent="1">
          <mxGeometry x="872.25" y="1938" width="50" height="20" as="geometry" />
        </mxCell>
        <mxCell id="d2Dc6NT3t0t4nk2ojeOt-150" style="edgeStyle=orthogonalEdgeStyle;rounded=0;orthogonalLoop=1;jettySize=auto;html=1;exitX=0.5;exitY=1;exitDx=0;exitDy=0;exitPerimeter=0;entryX=0.855;entryY=1;entryDx=0;entryDy=-4.35;entryPerimeter=0;startArrow=none;startFill=0;" edge="1" parent="1" source="d2Dc6NT3t0t4nk2ojeOt-132" target="I9GEyZ0ykOGTKjr3v0vk-110">
          <mxGeometry relative="1" as="geometry">
            <Array as="points">
              <mxPoint x="833" y="2150" />
              <mxPoint x="1239" y="2150" />
            </Array>
          </mxGeometry>
        </mxCell>
        <mxCell id="d2Dc6NT3t0t4nk2ojeOt-132" value="pg" style="shape=cylinder3;whiteSpace=wrap;html=1;boundedLbl=1;backgroundOutline=1;size=15;" vertex="1" parent="1">
          <mxGeometry x="789.75" y="2094" width="87.5" height="50" as="geometry" />
        </mxCell>
        <mxCell id="d2Dc6NT3t0t4nk2ojeOt-133" style="edgeStyle=orthogonalEdgeStyle;rounded=0;orthogonalLoop=1;jettySize=auto;html=1;exitX=0.5;exitY=0;exitDx=0;exitDy=0;exitPerimeter=0;entryX=0;entryY=0;entryDx=0;entryDy=15;entryPerimeter=0;startArrow=classic;startFill=1;" edge="1" parent="1" source="d2Dc6NT3t0t4nk2ojeOt-134" target="d2Dc6NT3t0t4nk2ojeOt-146">
          <mxGeometry relative="1" as="geometry" />
        </mxCell>
        <mxCell id="d2Dc6NT3t0t4nk2ojeOt-134" value="reddis" style="shape=cylinder3;whiteSpace=wrap;html=1;boundedLbl=1;backgroundOutline=1;size=15;" vertex="1" parent="1">
          <mxGeometry x="742.25" y="1878" width="55" height="40" as="geometry" />
        </mxCell>
        <mxCell id="d2Dc6NT3t0t4nk2ojeOt-135" style="edgeStyle=orthogonalEdgeStyle;rounded=0;orthogonalLoop=1;jettySize=auto;html=1;exitX=0.5;exitY=0;exitDx=0;exitDy=0;exitPerimeter=0;entryX=0.5;entryY=1;entryDx=0;entryDy=0;entryPerimeter=0;startArrow=classic;startFill=1;" edge="1" parent="1" source="d2Dc6NT3t0t4nk2ojeOt-136" target="d2Dc6NT3t0t4nk2ojeOt-146">
          <mxGeometry relative="1" as="geometry" />
        </mxCell>
        <mxCell id="d2Dc6NT3t0t4nk2ojeOt-136" value="reddis" style="shape=cylinder3;whiteSpace=wrap;html=1;boundedLbl=1;backgroundOutline=1;size=15;" vertex="1" parent="1">
          <mxGeometry x="806" y="1878" width="55" height="40" as="geometry" />
        </mxCell>
        <mxCell id="d2Dc6NT3t0t4nk2ojeOt-137" style="edgeStyle=orthogonalEdgeStyle;rounded=0;orthogonalLoop=1;jettySize=auto;html=1;exitX=0.5;exitY=0;exitDx=0;exitDy=0;exitPerimeter=0;entryX=1;entryY=0;entryDx=0;entryDy=15;entryPerimeter=0;startArrow=classic;startFill=1;" edge="1" parent="1" source="d2Dc6NT3t0t4nk2ojeOt-138" target="d2Dc6NT3t0t4nk2ojeOt-146">
          <mxGeometry relative="1" as="geometry" />
        </mxCell>
        <mxCell id="d2Dc6NT3t0t4nk2ojeOt-138" value="reddis" style="shape=cylinder3;whiteSpace=wrap;html=1;boundedLbl=1;backgroundOutline=1;size=15;" vertex="1" parent="1">
          <mxGeometry x="869.75" y="1878" width="55" height="40" as="geometry" />
        </mxCell>
        <mxCell id="d2Dc6NT3t0t4nk2ojeOt-139" style="edgeStyle=orthogonalEdgeStyle;rounded=0;orthogonalLoop=1;jettySize=auto;html=1;exitX=0.5;exitY=1;exitDx=0;exitDy=0;exitPerimeter=0;entryX=0;entryY=0;entryDx=0;entryDy=15;entryPerimeter=0;" edge="1" parent="1" source="d2Dc6NT3t0t4nk2ojeOt-140" target="d2Dc6NT3t0t4nk2ojeOt-132">
          <mxGeometry relative="1" as="geometry">
            <Array as="points">
              <mxPoint x="770.25" y="2083" />
              <mxPoint x="770.25" y="2083" />
              <mxPoint x="770.25" y="2109" />
            </Array>
          </mxGeometry>
        </mxCell>
        <mxCell id="d2Dc6NT3t0t4nk2ojeOt-140" value="pg" style="shape=cylinder3;whiteSpace=wrap;html=1;boundedLbl=1;backgroundOutline=1;size=15;" vertex="1" parent="1">
          <mxGeometry x="742.25" y="2038" width="55" height="40" as="geometry" />
        </mxCell>
        <mxCell id="d2Dc6NT3t0t4nk2ojeOt-141" style="edgeStyle=orthogonalEdgeStyle;rounded=0;orthogonalLoop=1;jettySize=auto;html=1;exitX=0.5;exitY=1;exitDx=0;exitDy=0;exitPerimeter=0;entryX=0.5;entryY=0;entryDx=0;entryDy=0;entryPerimeter=0;" edge="1" parent="1" source="d2Dc6NT3t0t4nk2ojeOt-142" target="d2Dc6NT3t0t4nk2ojeOt-132">
          <mxGeometry relative="1" as="geometry" />
        </mxCell>
        <mxCell id="d2Dc6NT3t0t4nk2ojeOt-142" value="pg" style="shape=cylinder3;whiteSpace=wrap;html=1;boundedLbl=1;backgroundOutline=1;size=15;" vertex="1" parent="1">
          <mxGeometry x="806" y="2038" width="55" height="40" as="geometry" />
        </mxCell>
        <mxCell id="d2Dc6NT3t0t4nk2ojeOt-143" style="edgeStyle=orthogonalEdgeStyle;rounded=0;orthogonalLoop=1;jettySize=auto;html=1;exitX=0.5;exitY=1;exitDx=0;exitDy=0;exitPerimeter=0;entryX=0.993;entryY=0.237;entryDx=0;entryDy=0;entryPerimeter=0;" edge="1" parent="1" source="d2Dc6NT3t0t4nk2ojeOt-144" target="d2Dc6NT3t0t4nk2ojeOt-132">
          <mxGeometry relative="1" as="geometry">
            <Array as="points">
              <mxPoint x="897.25" y="2106" />
            </Array>
          </mxGeometry>
        </mxCell>
        <mxCell id="d2Dc6NT3t0t4nk2ojeOt-144" value="pg" style="shape=cylinder3;whiteSpace=wrap;html=1;boundedLbl=1;backgroundOutline=1;size=15;" vertex="1" parent="1">
          <mxGeometry x="869.75" y="2038" width="55" height="40" as="geometry" />
        </mxCell>
        <mxCell id="d2Dc6NT3t0t4nk2ojeOt-145" value="rabbit" style="shape=process;whiteSpace=wrap;html=1;backgroundOutline=1;" vertex="1" parent="1">
          <mxGeometry x="682.25" y="1958" width="50" height="80" as="geometry" />
        </mxCell>
        <mxCell id="d2Dc6NT3t0t4nk2ojeOt-146" value="reddis" style="shape=cylinder3;whiteSpace=wrap;html=1;boundedLbl=1;backgroundOutline=1;size=15;" vertex="1" parent="1">
          <mxGeometry x="789.25" y="1800" width="87.5" height="50" as="geometry" />
        </mxCell>
      </root>
    </mxGraphModel>
  </diagram>
</mxfile>
